<!--<svg xmlns="http://www.w3.org/2000/svg" viewBox="0 0 24 24" class="icon multi-color" width="96" height="96">-->
<!--    <title style="stroke-width: 1;">gift</title><path id="tertiary-fill" d="M4,15H20a0,0,0,0,1,0,0v3a1,1,0,0,1-1,1H5a1,1,0,0,1-1-1V15A0,0,0,0,1,4,15Z" style="fill: rgb(202, 162, 237); stroke-width: 1;"></path><rect id="secondary-fill" x="3" y="6" width="18" height="4" rx="1" style="fill: rgb(82, 240, 181); stroke-width: 1;"></rect><path id="primary-stroke" d="M20,10H4A1,1,0,0,1,3,9V7A1,1,0,0,1,4,6H20a1,1,0,0,1,1,1V9A1,1,0,0,1,20,10Zm0,8V10H4v8a1,1,0,0,0,1,1H19A1,1,0,0,0,20,18ZM12,6A5.36,5.36,0,0,0,8,3m8,0a5.36,5.36,0,0,0-4,3m0,13V6" style="fill: none; stroke: rgb(101, 45, 144); stroke-linecap: round; stroke-linejoin: round; stroke-width: 1;"></path></svg>-->

<svg xmlns="http://www.w3.org/2000/svg" viewBox="0 0 24 24" class="icon" width="96" height="96">
    <rect id="primary" x="3" y="4" width="18" height="16" rx="1" style="fill: none; stroke: #b3b3b3; stroke-linecap: round; stroke-linejoin: round; stroke-width: 0.5;"></rect>
    <polyline id="primary-2" data-name="primary" points="20.71 19.71 14 13 11 16 9 14 3.29 19.71" style="fill: none; stroke: #b3b3b3; stroke-linecap: round; stroke-linejoin: round; stroke-width: 0.5;"></polyline>
    <line id="primary-upstroke" x1="10.95" y1="9" x2="11.05" y2="9" style="fill: none; stroke: #b3b3b3; stroke-linecap: round; stroke-linejoin: round; stroke-width: 0.5;"></line>
</svg>