<svg width="25em" height="25em" viewBox="0 0 600 600" fill="none" xmlns="http://www.w3.org/2000/svg">
    <path d="M600 0H0V600H600V0Z" fill="white"/>
    <path d="M196.777 126.366L167.483 111.379L168.255 110.915C168.277 110.901 171.272 108.802 171.887 97.1148C172.116 92.7538 171.168 87.6148 170.25 82.6538C168.598 73.7188 166.891 64.4808 172.033 59.3378C180.106 51.2658 187.607 50.8638 196.382 52.7458C205.444 54.6878 215.551 63.4628 215.977 63.8348L216.105 63.9468L216.138 64.1128C216.727 66.9177 217.161 69.753 217.438 72.6058C217.438 73.1638 217.387 74.0208 217.327 75.0118C217.189 77.3288 216.979 80.8308 217.412 82.1328C217.602 82.6998 218.089 83.9878 218.653 85.4778C220.526 90.4238 221.958 94.2778 221.958 95.2048C221.958 96.6488 218.152 98.7048 216.516 99.5258C215.156 100.207 211.627 102.382 211.627 104.244C211.656 104.959 211.751 105.671 211.909 106.369C212.302 108.409 212.747 110.721 210.021 111.811C207.105 112.978 198.861 115.745 197.326 116.259C196.963 117.604 196.778 118.992 196.776 120.386L196.777 126.366ZM169.363 111.217L195.777 124.732V120.383C195.77 118.799 195.996 117.224 196.448 115.706L196.527 115.468L196.764 115.39C196.864 115.358 206.473 112.151 209.651 110.88C211.515 110.134 211.351 108.75 210.928 106.555C210.756 105.795 210.655 105.02 210.628 104.241C210.628 101.431 215.513 98.9068 216.07 98.6288C218.658 97.3338 220.943 95.7288 220.959 95.2018C220.959 94.3858 218.931 89.0298 217.719 85.8298C217.128 84.2668 216.66 83.0298 216.465 82.4458C215.97 80.9608 216.165 77.6278 216.33 74.9458C216.389 73.9708 216.439 73.1278 216.439 72.5998C216.172 69.8697 215.755 67.1562 215.191 64.4718C213.98 63.4408 204.445 55.4898 196.172 53.7168C187.472 51.8538 180.519 52.2598 172.74 60.0388C167.97 64.8098 169.555 73.3858 171.233 82.4658C172.161 87.4888 173.121 92.6828 172.886 97.1658C172.394 106.511 170.377 110.021 169.363 111.217Z" fill="#333333"/>
    <path d="M200.471 61.6261C200.471 61.6261 208.219 65.5001 213.385 65.5001C220.485 65.5001 222.424 59.6891 219.841 55.8141C217.904 53.2321 214.778 52.9391 211.447 51.9401C204.991 50.0031 192.722 44.1921 183.037 46.1291C170.123 48.7121 165.603 63.5631 166.895 71.9571C168.187 80.3511 171.415 88.0991 171.415 91.9731C171.415 95.8471 171.415 100.367 172.06 101.013C172.705 101.659 175.934 98.4301 177.871 95.2021C179.357 92.7261 181.1 90.0361 180.454 88.1021C179.808 86.1681 174.643 82.9371 177.871 78.4171C179.748 75.7901 183.037 75.8341 184.328 78.4171C186.002 82.2922 186.88 86.464 186.911 90.6851C186.911 95.2051 185.62 101.016 186.911 105.536C188.202 110.056 199.179 121.678 205.636 122.969C212.093 124.26 216.613 122.969 217.259 118.45C217.905 113.931 216.613 106.827 217.259 106.181C217.905 105.535 217.337 104.433 215.967 104.89C214.999 105.213 213.067 105.213 213.067 104.567C213.067 103.276 213.39 102.953 216.618 102.953C219.846 102.953 220.492 101.662 219.846 100.37C219.2 99.0781 217.264 97.1421 213.39 97.7871C209.516 98.4321 209.515 101.016 206.29 100.37C203.065 99.7241 199.19 91.9761 195.959 90.6851C192.728 89.3941 190.148 88.1021 190.148 82.9371C190.148 77.7721 194.022 74.5431 195.959 72.6051C197.507 71.0915 198.813 69.3496 199.833 67.4401C200.471 66.1461 200.471 61.6261 200.471 61.6261Z" fill="#333333"/>
    <path d="M270.025 562.941C268.305 563.099 265.384 563.308 261.932 563.308C256.6 563.308 250.02 562.808 244.718 560.853C238.184 558.335 232.338 554.308 227.655 549.102C221.326 549.62 218.335 548.166 216.762 547.473C217.091 543.416 217.136 538.754 217.133 536.399C223.188 536.399 230.979 536.375 236.516 536.274C236.479 539.359 236.448 544.667 236.611 548.18C235.35 548.267 233.274 548.463 229.854 548.868C234.215 553.44 239.526 557 245.413 559.296C252.473 561.896 262.227 561.764 267.552 561.435C263.376 559.528 256.705 558.484 251.495 556.381C247.084 554.6 238.509 548.223 238.509 548.223C238.509 548.223 238.741 548.092 237.609 548.123C237.464 544.935 237.471 540.023 237.518 536.25C239.478 536.265 241.438 536.164 243.386 535.95C244.819 534.55 246.676 526.185 246.676 526.185L244.959 526.203C246.781 514.616 256.779 449.491 254.03 432.829C251.143 415.295 226.118 310.161 224.981 305.387C226.297 302.714 225.599 296.318 225.568 296.04C225.551 295.917 225.489 295.804 225.395 295.722C225.301 295.641 225.181 295.596 225.056 295.597C224.446 295.617 163.91 297.318 147.221 290.328C147.147 290.297 147.067 290.284 146.987 290.291C146.908 290.297 146.831 290.323 146.763 290.365C146.695 290.408 146.638 290.467 146.597 290.536C146.556 290.606 146.533 290.684 146.529 290.765C146.335 294.43 146.361 298.103 146.607 301.765C146.614 301.831 146.634 301.896 146.667 301.954C146.699 302.013 146.743 302.064 146.796 302.105C146.789 302.131 146.783 302.159 146.78 302.186L146.58 526.186H142.662L144.625 538.186H148.964C148.864 540.256 148.543 546.007 147.835 550.621C147.775 550.638 147.718 550.666 147.668 550.704C143.13 554.366 145.039 573.869 145.039 573.869C145.039 573.869 149.505 578.089 170.123 579.203C192.323 580.403 206.552 581.045 206.559 572.277C206.556 571.621 206.414 570.974 206.143 570.377C205.871 569.78 205.476 569.248 204.983 568.815C203.183 568.998 200.119 569.238 196.5 569.238C190.911 569.238 184.014 568.663 178.456 566.408C171.488 563.401 165.351 558.752 160.57 552.859C153.456 553.499 150.364 551.524 148.816 550.822C149.541 546.113 149.868 540.237 149.965 538.186H170.753C170.583 540.571 170.115 547.528 170.101 551.786C168.795 551.879 166.59 552.106 162.875 552.586C167.337 557.77 172.913 561.881 179.185 564.61C186.585 567.61 196.809 567.455 202.391 567.076C198.013 564.876 191.021 563.676 185.56 561.248C180.936 559.195 171.948 551.843 171.948 551.843C171.948 551.843 172.178 551.7 171.097 551.729C171.116 548.046 171.476 542.046 171.755 538.183H175.171L179.316 526.183H178.435L196.599 383.193C202.234 407.944 210.999 446.55 211.447 448.922C211.924 451.479 210.247 499.348 209.205 526.58L206.559 526.608L207.938 536.373C207.938 536.373 211.393 536.388 216.138 536.389C216.138 538.676 216.1 543.164 215.792 547.124C215.638 547.097 215.479 547.133 215.351 547.224C211.022 550.4 212.842 567.315 212.842 567.315C212.842 567.315 217.103 570.975 236.773 571.941C257.953 572.982 271.527 573.541 271.533 565.934C271.522 565.354 271.381 564.784 271.12 564.266C270.858 563.748 270.484 563.295 270.025 562.941ZM224.617 296.617C224.809 298.672 224.993 303.009 224.124 304.888C219.983 305.595 215.775 306.144 211.568 306.56C212.595 303.411 213.096 300.115 213.051 296.803C218.906 296.76 223.164 296.657 224.617 296.617V296.617ZM212.051 296.81C212.102 300.16 211.571 303.493 210.482 306.661C206.211 307.061 201.949 307.319 197.763 307.461C198.319 303.901 198.22 300.27 197.471 296.746C202.814 296.827 207.81 296.835 212.051 296.81V296.81ZM183.196 296.322C187.674 296.522 192.16 296.648 196.446 296.722C197.227 300.259 197.329 303.913 196.746 307.489C191.834 307.626 187.046 307.597 182.481 307.429C182.007 303.715 182.249 299.944 183.196 296.322ZM169.252 295.422C173.403 295.792 177.776 296.071 182.175 296.278C181.258 299.907 181.021 303.674 181.475 307.39C176.987 307.203 172.739 306.883 168.844 306.456C168.27 302.785 168.408 299.038 169.252 295.42V295.422ZM156.835 293.871C160.269 294.465 164.135 294.944 168.248 295.33C167.424 298.941 167.277 302.674 167.813 306.339C164.016 305.919 160.243 305.306 156.508 304.503C155.953 300.969 156.064 297.362 156.835 293.869V293.871ZM147.49 291.524C150.207 292.492 153.005 293.219 155.85 293.695C155.093 297.165 154.962 300.743 155.462 304.259C152.711 303.711 150.056 302.762 147.58 301.444C147.366 298.141 147.336 294.828 147.49 291.522V291.524ZM212.423 448.75C211.856 445.75 199.007 389.307 196.959 380.315L205.734 311.242C205.742 311.177 205.738 311.11 205.721 311.047C205.703 310.984 205.674 310.924 205.634 310.872C205.593 310.82 205.543 310.777 205.486 310.744C205.429 310.711 205.366 310.69 205.301 310.682C205.17 310.667 205.038 310.704 204.933 310.785C204.829 310.865 204.76 310.984 204.742 311.115L196.002 379.915L195.851 379.95L195.945 380.364L177.419 526.193H147.577L147.777 302.699C154.053 306.007 170.664 308.631 190.237 308.631C201.571 308.656 212.888 307.745 224.072 305.906C225.888 313.534 250.203 415.762 253.041 432.999C255.741 449.372 245.633 515.399 243.941 526.222L210.199 526.579C210.728 512.635 212.998 451.834 212.423 448.748V448.75Z" fill="#333333"/>
    <path d="M304.427 200.449C298.616 195.284 272.142 198.512 250.189 197.867C235.637 197.439 227.615 192.757 223.857 189.648C223.514 188.093 223.24 186.732 223.07 185.599C221.133 172.685 216.613 151.377 204.345 132.006C192.077 112.635 175.934 108.761 170.645 108.566C165.356 108.371 151.4 115.866 146.88 116.509C142.36 117.152 136.736 115.693 134.935 119.415C130.092 129.423 146.88 144.274 150.109 145.566C153.338 146.858 152.046 148.794 151.4 151.377C150.754 153.96 113.95 213.363 119.761 225.631C125.572 237.899 140.423 246.939 140.423 246.939C140.423 246.939 140.423 279.224 144.943 292.783C156.566 299.24 198.536 301.823 228.237 297.303C233.09 273.339 233.935 248.736 230.737 224.495C272.772 231.786 299.994 227.525 302.49 226.277C305.077 224.986 310.238 205.615 304.427 200.449Z" fill="#56CCF2"/>
    <path d="M184.328 168.165C184.328 168.165 180.454 186.89 173.997 194.638C178.253 190.395 181.943 185.621 184.977 180.433L184.328 168.165Z" fill="#333333"/>
    <path d="M173.997 195.138C173.872 195.138 173.752 195.091 173.66 195.007C173.565 194.92 173.507 194.8 173.498 194.672C173.49 194.544 173.531 194.417 173.613 194.318C179.913 186.754 183.8 168.25 183.839 168.064C183.863 167.945 183.93 167.838 184.027 167.764C184.124 167.691 184.245 167.655 184.366 167.664C184.487 167.673 184.601 167.726 184.686 167.813C184.771 167.9 184.822 168.015 184.828 168.136L185.474 180.404C185.479 180.497 185.458 180.589 185.413 180.67C182.351 185.895 178.633 190.707 174.351 194.99C174.305 195.037 174.25 195.074 174.189 195.099C174.128 195.125 174.063 195.138 173.997 195.138ZM184.015 171.726C182.907 176.168 180.691 183.993 177.553 190.026C180.137 186.997 182.45 183.748 184.467 180.315L184.015 171.726Z" fill="#333333"/>
    <path d="M168.186 205.615C168.186 205.615 160.438 212.715 160.438 215.3C160.438 217.885 165.603 221.112 174.638 221.112C170.764 219.174 164.307 216.592 164.307 216.592C164.307 216.592 170.123 207.552 168.186 205.615Z" fill="#333333"/>
    <path d="M174.643 221.611C165.56 221.611 159.943 218.336 159.943 215.3C159.943 212.576 167.043 205.988 167.853 205.246C167.948 205.159 168.073 205.112 168.202 205.114C168.331 205.117 168.454 205.17 168.545 205.261C170.486 207.202 166.506 214.031 165.06 216.353C166.716 217.026 171.687 219.072 174.872 220.664C174.973 220.714 175.053 220.797 175.101 220.899C175.149 221.001 175.161 221.116 175.135 221.226C175.109 221.336 175.046 221.435 174.957 221.505C174.867 221.575 174.756 221.612 174.643 221.611ZM168.057 206.417C165.123 209.17 160.938 213.668 160.938 215.3C160.938 217.268 164.946 220.031 172.266 220.532C168.588 218.843 164.18 217.077 164.127 217.056C164.058 217.029 163.997 216.987 163.947 216.933C163.896 216.879 163.858 216.814 163.836 216.744C163.813 216.674 163.807 216.599 163.817 216.526C163.826 216.453 163.852 216.383 163.892 216.321C165.99 213.057 168.444 208.169 168.057 206.417V206.417Z" fill="#333333"/>
    <path d="M202.408 225.631C202.408 225.631 201.116 251.459 194.659 254.688C200.471 257.27 201.116 255.979 201.116 255.979C201.116 255.979 207.577 239.837 202.408 225.631Z" fill="#333333"/>
    <path d="M200.077 256.803C198.114 256.619 196.206 256.055 194.458 255.145C194.371 255.107 194.296 255.045 194.243 254.966C194.19 254.887 194.16 254.794 194.158 254.699C194.156 254.604 194.181 254.51 194.23 254.429C194.279 254.348 194.35 254.282 194.435 254.24C200.559 251.178 201.895 225.862 201.907 225.607C201.913 225.491 201.958 225.381 202.036 225.296C202.114 225.21 202.219 225.154 202.333 225.137C202.447 225.12 202.564 225.143 202.663 225.202C202.762 225.261 202.838 225.352 202.877 225.461C208.047 239.681 201.645 256.002 201.577 256.161C201.445 256.438 201.082 256.803 200.077 256.803ZM195.707 254.593C199.462 256.154 200.507 255.793 200.69 255.7C201.169 254.444 206.097 240.963 202.731 228.324C202.227 234.738 200.515 250.636 195.705 254.593H195.707Z" fill="#333333"/>
    <path d="M142.724 247.585C156.487 254.501 171.987 257.197 187.277 255.333V254.042C172.12 255.636 156.805 253.417 142.724 247.585V247.585Z" fill="#333333"/>
    <path d="M177.999 256.421C165.667 256.42 153.504 253.544 142.478 248.021C142.367 247.958 142.284 247.855 142.247 247.732C142.21 247.61 142.221 247.478 142.278 247.364C142.335 247.25 142.433 247.162 142.553 247.118C142.673 247.074 142.805 247.077 142.922 247.127C165.122 256.64 186.987 253.58 187.205 253.548C187.276 253.538 187.349 253.542 187.418 253.562C187.487 253.583 187.551 253.617 187.605 253.664C187.659 253.711 187.703 253.769 187.733 253.835C187.763 253.9 187.778 253.971 187.778 254.043V255.334C187.779 255.456 187.735 255.575 187.654 255.667C187.574 255.759 187.462 255.819 187.341 255.834C184.243 256.228 181.122 256.424 177.999 256.421V256.421ZM160.65 253.449C169.212 255.425 178.05 255.914 186.777 254.893V254.609C178.057 255.447 169.262 255.056 160.65 253.449V253.449Z" fill="#333333"/>
    <path d="M151.577 146.448C152.739 145.95 153.781 145.209 154.631 144.274C155.922 142.983 161.087 134.589 167.544 133.297C164.316 132.652 154.428 141.474 152.693 142.337C151.684 142.837 148.47 145.013 149.65 145.337C150.327 145.643 150.973 146.015 151.577 146.448Z" fill="#333333"/>
    <path d="M155.508 141.561C155.316 141.809 155.136 142.043 154.969 142.261C154.513 142.861 154.118 143.369 153.919 143.568C153.257 144.26 152.497 144.853 151.664 145.327L151.529 145.237C151.309 145.091 151.076 144.937 150.837 144.796C151.549 144.199 152.32 143.675 153.137 143.233C153.969 142.737 154.762 142.178 155.51 141.562L155.508 141.561ZM167.177 133.262C163.627 133.262 154.365 141.503 152.691 142.335C151.682 142.835 148.468 145.011 149.648 145.335C150.325 145.639 150.971 146.01 151.575 146.442C152.737 145.944 153.779 145.203 154.629 144.268C155.92 142.977 161.085 134.583 167.542 133.291C167.422 133.268 167.299 133.257 167.177 133.258V133.262Z" fill="#333333"/>
    <path d="M305.228 201.639C305.228 201.639 307.082 216.685 299.92 226.715C302.547 226.518 305.022 225.405 306.913 223.57C307.567 221.937 310.747 205.779 305.228 201.639Z" fill="#333333"/>
    <path d="M298.948 227.216L299.514 226.424C306.481 216.666 304.75 201.849 304.731 201.7L304.588 200.534L305.527 201.239C311.559 205.763 307.827 222.647 307.377 223.756L307.277 223.915C305.296 225.854 302.689 227.024 299.923 227.215L298.948 227.216ZM305.848 202.956C306.116 206.803 306.317 217.808 300.922 226.131C303.004 225.727 304.931 224.745 306.481 223.297C307.177 221.324 309.645 207.851 305.848 202.956V202.956Z" fill="#333333"/>
    <path d="M334.452 207.593C330.566 207.383 326.823 206.059 323.67 203.779L324.306 203.008C326.587 204.895 333.942 207.945 337.506 205.908C338.018 205.616 338.625 205.172 338.606 204.72C338.559 203.728 336.017 202.578 334.498 201.891C334.154 201.735 333.835 201.591 333.56 201.458C332.952 201.137 332.398 200.723 331.918 200.231C330.558 198.973 329.018 197.548 322.909 198.004C314.656 198.621 307.109 204.832 307.032 204.895L306.391 204.127C306.709 203.863 314.255 197.648 322.835 197.007C329.369 196.517 331.162 198.169 332.596 199.497C333.007 199.919 333.479 200.277 333.996 200.558C334.262 200.687 334.575 200.828 334.91 200.98C336.968 201.91 339.529 203.069 339.605 204.673C339.641 205.442 339.105 206.149 338.005 206.773C336.912 207.349 335.687 207.632 334.452 207.593V207.593Z" fill="#333333"/>
    <path d="M325.902 228.252C322.678 228.252 318.434 226.946 314.678 225.79C314.106 225.614 313.55 225.443 313.02 225.284C310.134 224.547 307.161 224.202 304.183 224.259L304.154 223.259C307.239 223.194 310.319 223.553 313.307 224.326C313.84 224.486 314.398 224.657 314.972 224.834C318.564 225.934 323.013 227.321 326.125 227.249C329.049 227.188 335.425 223.486 337.825 222.093C338.35 221.793 338.725 221.572 338.887 221.493C339.268 221.308 341.795 219.781 344.787 217.835C346.338 216.828 347.771 215.861 348.941 215.035L349.603 215.783L349.454 215.89C348.338 216.69 346.892 217.663 345.338 218.671C342.628 220.434 339.838 222.148 339.325 222.395C339.173 222.47 338.825 222.676 338.325 222.965C335.633 224.528 329.33 228.189 326.147 228.256C326.065 228.251 325.984 228.252 325.902 228.252Z" fill="#333333"/>
    <path d="M348.819 216.356L348.752 214.108L349.752 214.078L349.762 214.45C350.789 213.739 351.737 212.92 352.589 212.006C352.969 211.536 353.252 210.994 353.419 210.412C353.586 209.831 353.634 209.222 353.561 208.621C353.507 208.376 353.398 208.147 353.242 207.951C353.086 207.755 352.887 207.598 352.661 207.49C352.351 207.343 352.016 207.255 351.674 207.23C351.455 207.199 351.233 207.214 351.021 207.275C350.808 207.336 350.611 207.44 350.442 207.582C349.893 208.157 349.591 208.924 349.599 209.719L348.599 209.672C348.612 208.606 349.037 207.586 349.785 206.826C350.057 206.596 350.373 206.424 350.714 206.323C351.055 206.221 351.414 206.191 351.767 206.235C352.232 206.271 352.686 206.394 353.106 206.595C353.464 206.767 353.778 207.017 354.026 207.328C354.273 207.638 354.448 208 354.536 208.387C354.645 209.13 354.6 209.888 354.404 210.613C354.207 211.338 353.863 212.015 353.394 212.601C352.253 213.819 350.974 214.899 349.581 215.818L348.819 216.356Z" fill="#333333"/>
    <path d="M352.854 207.542C352.775 207.542 352.696 207.523 352.626 207.487C352.555 207.451 352.494 207.398 352.448 207.334C352.409 207.281 352.381 207.22 352.366 207.156C352.351 207.092 352.349 207.025 352.359 206.96C352.37 206.895 352.393 206.833 352.428 206.777C352.463 206.721 352.508 206.672 352.562 206.634L364.468 198.065L353.134 186.134L332.592 200.31C332.483 200.385 332.349 200.414 332.218 200.39C332.088 200.366 331.972 200.292 331.897 200.183C331.859 200.129 331.832 200.068 331.818 200.003C331.804 199.938 331.802 199.872 331.814 199.806C331.826 199.741 331.851 199.679 331.887 199.624C331.923 199.568 331.969 199.52 332.024 199.483L352.924 185.064C353.022 184.997 353.141 184.966 353.259 184.979C353.378 184.991 353.488 185.046 353.57 185.132L365.593 197.788C365.642 197.84 365.679 197.901 365.703 197.969C365.726 198.036 365.735 198.108 365.728 198.179C365.721 198.25 365.699 198.319 365.664 198.381C365.628 198.443 365.58 198.496 365.522 198.538L353.151 207.438C353.066 207.504 352.962 207.54 352.854 207.542Z" fill="#333333"/>
    <path d="M330.277 223.793C330.205 223.793 330.133 223.777 330.068 223.747C330.002 223.717 329.944 223.673 329.897 223.618L318.055 209.8C318.01 209.746 317.976 209.684 317.956 209.617C317.936 209.55 317.93 209.48 317.939 209.411C317.948 209.341 317.972 209.275 318.008 209.215C318.045 209.155 318.093 209.104 318.151 209.064L325.377 204.079C325.486 204.004 325.621 203.975 325.751 203.999C325.881 204.023 325.997 204.098 326.072 204.207C326.11 204.261 326.137 204.322 326.151 204.387C326.165 204.451 326.166 204.518 326.155 204.583C326.143 204.648 326.118 204.711 326.082 204.766C326.046 204.822 326 204.869 325.945 204.907L319.176 209.576L330.358 222.624L339.315 216.177C339.368 216.138 339.429 216.11 339.493 216.095C339.557 216.08 339.624 216.078 339.689 216.088C339.754 216.099 339.816 216.122 339.872 216.157C339.928 216.192 339.977 216.237 340.015 216.291C340.054 216.344 340.081 216.405 340.097 216.469C340.112 216.533 340.114 216.599 340.104 216.665C340.093 216.73 340.07 216.792 340.035 216.848C340 216.904 339.955 216.952 339.901 216.991L330.571 223.706C330.484 223.765 330.382 223.795 330.277 223.793Z" fill="#333333"/>
    <path d="M348.577 216.393C348.495 216.393 348.415 216.373 348.343 216.335C348.226 216.273 348.138 216.167 348.099 216.041C348.06 215.914 348.072 215.777 348.134 215.66C349.382 213.296 348.964 210.108 348.501 209.744C348.164 209.563 347.793 209.456 347.412 209.43C347.031 209.404 346.649 209.459 346.291 209.592C344.976 210.054 344.445 211.755 344.246 212.727C344.233 212.791 344.207 212.852 344.17 212.907C344.133 212.961 344.086 213.008 344.031 213.044C343.976 213.08 343.915 213.105 343.85 213.117C343.786 213.13 343.719 213.129 343.655 213.116C343.591 213.103 343.529 213.077 343.475 213.04C343.42 213.003 343.373 212.956 343.337 212.901C343.301 212.846 343.276 212.785 343.264 212.72C343.251 212.656 343.252 212.589 343.265 212.525C343.507 211.346 344.179 209.275 345.959 208.649C346.457 208.462 346.989 208.388 347.519 208.43C348.049 208.472 348.563 208.63 349.025 208.893C350.165 209.587 350.36 213.588 349.019 216.127C348.976 216.207 348.913 216.274 348.835 216.321C348.757 216.368 348.668 216.393 348.577 216.393V216.393Z" fill="#333333"/>
    <path d="M344.589 219.057C344.506 219.057 344.424 219.036 344.351 218.997C344.278 218.957 344.215 218.9 344.17 218.83C344.097 218.719 344.072 218.584 344.099 218.454C344.126 218.324 344.204 218.21 344.315 218.138L344.749 217.856C345.889 216.684 346.268 215.423 345.787 214.391C345.619 214.006 345.34 213.681 344.985 213.455C344.631 213.23 344.218 213.115 343.798 213.126C343.59 213.138 343.383 213.161 343.178 213.197C341.73 213.451 340.604 215.551 340.061 216.781C339.756 217.491 339.586 218.023 339.584 218.028C339.564 218.091 339.532 218.149 339.49 218.199C339.447 218.249 339.395 218.291 339.337 218.321C339.279 218.351 339.215 218.369 339.149 218.375C339.084 218.38 339.018 218.373 338.955 218.353C338.829 218.312 338.724 218.224 338.663 218.106C338.602 217.988 338.591 217.851 338.631 217.725C338.638 217.701 338.817 217.144 339.145 216.381C339.908 214.652 341.195 212.53 343.005 212.212C343.244 212.171 343.484 212.142 343.726 212.128C344.348 212.101 344.964 212.262 345.493 212.59C346.022 212.919 346.44 213.399 346.693 213.968C347.012 214.651 347.526 216.468 345.423 218.596C345.398 218.621 345.37 218.644 345.34 218.664L344.862 218.976C344.78 219.028 344.686 219.056 344.589 219.057V219.057Z" fill="#333333"/>
    <path d="M511.5 330.605H304.5C304.367 330.605 304.24 330.553 304.146 330.459C304.053 330.365 304 330.238 304 330.105V314.105C304 313.973 304.053 313.846 304.146 313.752C304.24 313.658 304.367 313.605 304.5 313.605H511.5C511.633 313.605 511.76 313.658 511.854 313.752C511.947 313.846 512 313.973 512 314.105V330.105C512 330.238 511.947 330.365 511.854 330.459C511.76 330.553 511.633 330.605 511.5 330.605ZM305 329.605H511V314.605H305V329.605Z" fill="#333333"/>
    <path d="M510.5 330.105H494.5V572.105H510.5V330.105Z" fill="#333333"/>
    <path d="M511 572.605H494V329.605H511V572.605ZM495 571.605H510V330.605H495V571.605Z" fill="#333333"/>
    <path d="M322.829 329.639L322.198 330.415L494.02 470.225L494.651 469.449L322.829 329.639Z" fill="#333333"/>
    <path d="M486.505 307H421.505C421.372 307 421.245 306.947 421.151 306.854C421.058 306.76 421.005 306.633 421.005 306.5C421.005 306.367 421.058 306.24 421.151 306.146C421.245 306.053 421.372 306 421.505 306H486.505C486.638 306 486.765 306.053 486.859 306.146C486.952 306.24 487.005 306.367 487.005 306.5C487.005 306.633 486.952 306.76 486.859 306.854C486.765 306.947 486.638 307 486.505 307Z" fill="#333333"/>
    <path d="M511.505 314.005H406.505C406.371 314.005 406.243 313.952 406.148 313.857C406.054 313.762 406 313.634 406 313.5V297.5C406 297.366 406.054 297.238 406.148 297.143C406.243 297.049 406.371 296.995 406.505 296.995H511.505C511.639 296.995 511.767 297.049 511.862 297.143C511.956 297.238 512.01 297.366 512.01 297.5V313.5C512.01 313.634 511.956 313.762 511.862 313.857C511.767 313.952 511.639 314.005 511.505 314.005V314.005ZM407.01 312.995H511V298.005H407.01V312.995Z" fill="#333333"/>
    <path d="M503.505 297.732H407.505C407.372 297.732 407.245 297.679 407.151 297.586C407.058 297.492 407.005 297.365 407.005 297.232V284.5C407.005 284.367 407.058 284.24 407.151 284.146C407.245 284.053 407.372 284 407.505 284H503.505C503.638 284 503.765 284.053 503.859 284.146C503.952 284.24 504.005 284.367 504.005 284.5V297.232C504.005 297.365 503.952 297.492 503.859 297.586C503.765 297.679 503.638 297.732 503.505 297.732V297.732ZM408.005 296.732H503.005V285H408.005V296.732Z" fill="#333333"/>
    <path d="M488.543 284.606H466.458C466.335 284.607 466.217 284.563 466.125 284.483C466.033 284.402 465.973 284.291 465.958 284.17L458.715 228.17C458.706 228.1 458.712 228.028 458.733 227.96C458.754 227.892 458.789 227.829 458.836 227.776C458.883 227.723 458.94 227.68 459.005 227.65C459.07 227.621 459.14 227.606 459.212 227.606H493.612C493.681 227.606 493.75 227.621 493.813 227.649C493.877 227.677 493.934 227.718 493.98 227.769C494.027 227.82 494.063 227.881 494.085 227.946C494.107 228.012 494.116 228.082 494.109 228.151L489.041 284.151C489.029 284.275 488.972 284.391 488.88 284.475C488.788 284.559 488.668 284.606 488.543 284.606V284.606ZM466.896 283.606H488.087L493.066 228.606H459.785L466.896 283.606Z" fill="#333333"/>
    <path d="M497.59 228.618L454.501 228.606C454.416 228.606 454.333 228.585 454.258 228.544C454.184 228.503 454.122 228.444 454.077 228.372C454.032 228.3 454.006 228.218 454.001 228.134C453.996 228.049 454.013 227.965 454.05 227.889L456.986 221.789L457.27 221.208C457.31 221.124 457.373 221.054 457.452 221.004C457.531 220.954 457.622 220.928 457.715 220.927L494.73 220.607C494.828 220.612 494.924 220.644 495.006 220.699C495.088 220.753 495.154 220.83 495.197 220.919L498.053 227.931C498.084 228.007 498.095 228.089 498.087 228.171C498.079 228.253 498.05 228.331 498.005 228.399C497.959 228.466 497.897 228.522 497.825 228.56C497.753 228.598 497.672 228.618 497.59 228.618V228.618ZM455.301 227.606L496.851 227.618L494.401 221.606L458.035 221.92L455.301 227.606Z" fill="#333333"/>
    <path d="M489.436 221.606H463.668C463.585 221.606 463.503 221.585 463.429 221.545C463.356 221.505 463.294 221.447 463.248 221.377C463.203 221.307 463.176 221.227 463.17 221.144C463.164 221.06 463.178 220.977 463.212 220.901L464.56 217.901C464.599 217.813 464.663 217.738 464.744 217.686C464.825 217.634 464.919 217.606 465.015 217.606H488.31C488.411 217.606 488.51 217.637 488.594 217.695C488.678 217.753 488.742 217.835 488.777 217.93L489.904 220.93C489.932 221.006 489.942 221.087 489.932 221.167C489.922 221.248 489.893 221.324 489.847 221.391C489.8 221.457 489.739 221.512 489.667 221.549C489.596 221.586 489.516 221.606 489.436 221.606ZM464.441 220.606H488.713L487.962 218.606H465.338L464.441 220.606Z" fill="#333333"/>
    <path d="M481.422 218.469C481.339 218.469 481.257 218.449 481.184 218.41C481.067 218.346 480.981 218.239 480.943 218.112C480.906 217.985 480.92 217.848 480.984 217.732L487.154 206.261C487.217 206.144 487.324 206.058 487.451 206.02C487.578 205.983 487.715 205.997 487.832 206.061C487.948 206.124 488.034 206.231 488.071 206.358C488.109 206.485 488.095 206.621 488.032 206.738L481.862 218.209C481.818 218.288 481.755 218.354 481.677 218.399C481.6 218.445 481.511 218.469 481.422 218.469Z" fill="#333333"/>
    <path d="M322.131 173.916C321.898 173.918 321.671 173.845 321.481 173.709C321.292 173.574 321.151 173.381 321.078 173.16C319.148 167.61 313.778 153.793 305.615 145.374C304.815 144.547 303.858 143.574 302.774 142.474C292.246 131.756 270.338 109.452 261.365 90.8109C255.264 77.8035 254.514 62.9202 259.279 49.3659C262.92 39.5549 269.453 32.3569 278.173 28.5499C288.273 24.1419 298.656 23.9379 308.21 27.9619C319.518 32.7239 328.652 43.0219 333.928 56.9619C343.991 83.5389 335.473 123.362 329.5 144.734C325.165 160.242 323.713 168.621 323.256 172.919C323.234 173.175 323.123 173.414 322.943 173.597C322.763 173.78 322.524 173.893 322.269 173.919C322.223 173.92 322.177 173.919 322.131 173.916V173.916ZM294.106 26.0849C288.751 26.1239 283.462 27.2738 278.574 29.4619C270.108 33.1619 263.76 40.1619 260.217 49.7099C255.544 63.0088 256.279 77.6111 262.266 90.3729C271.166 108.866 292.997 131.089 303.488 141.773C304.574 142.878 305.531 143.853 306.334 144.68C314.634 153.243 320.071 167.222 322.023 172.835C322.03 172.863 322.048 172.887 322.072 172.902C322.097 172.918 322.127 172.923 322.155 172.917C322.184 172.917 322.211 172.905 322.231 172.885C322.251 172.865 322.262 172.837 322.262 172.809V172.809C322.721 168.472 324.183 160.034 328.537 144.46C334.477 123.206 342.955 83.6209 332.993 57.3109C327.815 43.6339 318.876 33.5379 307.822 28.8819C303.484 27.0394 298.819 26.0882 294.106 26.0849V26.0849Z" fill="#333333"/>
    <path d="M283.946 69.7837C283.838 69.7837 283.733 69.7486 283.646 69.6837L279.029 66.1837C278.976 66.1443 278.932 66.0949 278.899 66.0384C278.865 65.9819 278.843 65.9194 278.834 65.8544C278.825 65.7894 278.828 65.7232 278.845 65.6596C278.861 65.596 278.89 65.5362 278.929 65.4837C278.968 65.4312 279.018 65.3869 279.074 65.3535C279.131 65.32 279.193 65.298 279.258 65.2887C279.323 65.2794 279.39 65.283 279.453 65.2993C279.517 65.3156 279.577 65.3443 279.629 65.3837L284.247 68.8837C284.299 68.9231 284.344 68.9724 284.377 69.0289C284.411 69.0854 284.433 69.148 284.442 69.213C284.451 69.278 284.448 69.3442 284.431 69.4078C284.415 69.4714 284.386 69.5312 284.347 69.5837C284.3 69.6459 284.24 69.6964 284.17 69.7311C284.101 69.7658 284.024 69.7839 283.946 69.7837Z" fill="#333333"/>
    <path d="M297.396 64.8489C297.286 64.8489 297.179 64.8127 297.092 64.7458C297.004 64.6789 296.942 64.5851 296.913 64.4789L295.245 58.2689C295.228 58.2055 295.223 58.1393 295.232 58.0742C295.24 58.009 295.262 57.9462 295.294 57.8893C295.327 57.8323 295.371 57.7824 295.423 57.7424C295.475 57.7023 295.535 57.673 295.598 57.6559C295.661 57.6388 295.728 57.6344 295.793 57.6429C295.858 57.6514 295.921 57.6726 295.978 57.7054C296.035 57.7382 296.085 57.7818 296.125 57.8339C296.165 57.886 296.194 57.9455 296.211 58.0089L297.879 64.2189C297.896 64.2823 297.9 64.3485 297.892 64.4137C297.884 64.4788 297.862 64.5416 297.83 64.5985C297.797 64.6555 297.753 64.7054 297.701 64.7454C297.649 64.7855 297.589 64.8149 297.526 64.8319C297.484 64.843 297.44 64.8487 297.396 64.8489V64.8489Z" fill="#333333"/>
    <path d="M310.057 64.8487C309.996 64.8484 309.935 64.8372 309.878 64.8157C309.817 64.7922 309.76 64.7568 309.713 64.7116C309.665 64.6663 309.627 64.6121 309.6 64.552C309.573 64.4919 309.558 64.4271 309.557 64.3613C309.555 64.2955 309.566 64.2301 309.59 64.1687L311.978 57.9597C312.002 57.8982 312.037 57.842 312.082 57.7943C312.127 57.7465 312.182 57.7082 312.242 57.6814C312.302 57.6546 312.367 57.64 312.432 57.6383C312.498 57.6367 312.564 57.648 312.625 57.6717C312.686 57.6953 312.743 57.7307 312.79 57.776C312.838 57.8213 312.876 57.8756 312.903 57.9357C312.929 57.9958 312.944 58.0605 312.945 58.1262C312.947 58.192 312.936 58.2574 312.912 58.3187L310.524 64.5277C310.488 64.6222 310.424 64.7034 310.34 64.7607C310.257 64.818 310.158 64.8487 310.057 64.8487Z" fill="#333333"/>
    <path d="M303.784 111.031C303.43 111.031 303.085 110.915 302.803 110.701C302.631 110.572 302.487 110.41 302.379 110.226C302.27 110.041 302.199 109.836 302.17 109.624C302.11 109.194 302.223 108.759 302.484 108.413C302.744 108.067 303.132 107.838 303.561 107.778L311.681 106.641C311.894 106.61 312.11 106.623 312.318 106.677C312.526 106.731 312.722 106.826 312.893 106.956C313.065 107.084 313.209 107.246 313.318 107.431C313.426 107.616 313.497 107.821 313.526 108.034C313.556 108.246 313.544 108.462 313.491 108.67C313.437 108.878 313.342 109.073 313.213 109.244C313.084 109.415 312.922 109.56 312.737 109.669C312.552 109.778 312.347 109.849 312.134 109.879L304.014 111.015C303.938 111.025 303.861 111.031 303.784 111.031V111.031ZM311.91 107.625C311.88 107.625 311.85 107.625 311.82 107.631L303.7 108.769C303.617 108.78 303.538 108.808 303.466 108.85C303.394 108.892 303.332 108.948 303.282 109.015C303.231 109.081 303.195 109.157 303.174 109.238C303.153 109.318 303.148 109.402 303.16 109.485C303.186 109.65 303.275 109.799 303.409 109.9C303.542 110.001 303.71 110.045 303.876 110.025L311.996 108.888C312.078 108.876 312.158 108.849 312.23 108.807C312.301 108.764 312.364 108.708 312.414 108.642C312.464 108.575 312.501 108.499 312.522 108.419C312.543 108.338 312.548 108.254 312.536 108.172C312.513 108.005 312.425 107.855 312.291 107.754C312.181 107.67 312.048 107.625 311.91 107.625V107.625Z" fill="#333333"/>
    <path d="M305.745 113.379C305.381 113.379 305.026 113.26 304.737 113.039C304.56 112.907 304.411 112.741 304.299 112.55C304.187 112.36 304.114 112.149 304.085 111.93C304.044 111.706 304.048 111.475 304.097 111.252C304.147 111.03 304.24 110.819 304.373 110.633C304.505 110.447 304.673 110.29 304.867 110.17C305.061 110.05 305.277 109.971 305.503 109.936L310.403 109.25C310.844 109.189 311.292 109.305 311.649 109.573C312.005 109.841 312.24 110.24 312.303 110.681C312.344 110.905 312.34 111.136 312.29 111.359C312.241 111.581 312.147 111.792 312.015 111.978C311.883 112.164 311.714 112.321 311.52 112.441C311.326 112.561 311.11 112.64 310.884 112.675L305.984 113.362C305.905 113.373 305.825 113.379 305.745 113.379V113.379ZM310.639 110.234C310.608 110.233 310.577 110.235 310.546 110.24L305.641 110.926C305.462 110.951 305.301 111.047 305.192 111.191C305.083 111.335 305.036 111.517 305.061 111.696C305.067 111.801 305.094 111.904 305.142 111.998C305.19 112.092 305.257 112.174 305.339 112.241C305.482 112.348 305.662 112.395 305.839 112.372L310.739 111.685C310.918 111.66 311.08 111.565 311.189 111.421C311.297 111.276 311.345 111.095 311.32 110.916C311.311 110.738 311.236 110.57 311.11 110.444C310.984 110.319 310.817 110.244 310.639 110.234V110.234Z" fill="#333333"/>
    <path d="M307.594 115.545C307.219 115.544 306.856 115.408 306.573 115.161C306.29 114.915 306.105 114.575 306.052 114.203C306.024 114 306.035 113.794 306.087 113.596C306.138 113.398 306.228 113.212 306.352 113.049C306.475 112.886 306.629 112.749 306.806 112.646C306.982 112.543 307.177 112.476 307.38 112.449L309.555 112.144C309.758 112.116 309.964 112.127 310.162 112.179C310.361 112.23 310.547 112.32 310.71 112.444C310.873 112.567 311.01 112.721 311.113 112.898C311.216 113.074 311.283 113.269 311.31 113.472C311.367 113.881 311.259 114.295 311.01 114.625C310.762 114.954 310.393 115.171 309.984 115.229V115.229L307.809 115.534C307.738 115.542 307.666 115.546 307.594 115.545ZM309.771 113.125C309.745 113.125 309.719 113.127 309.693 113.131L307.517 113.431C307.445 113.441 307.375 113.465 307.312 113.502C307.249 113.539 307.194 113.588 307.15 113.647C307.106 113.705 307.073 113.772 307.055 113.843C307.036 113.914 307.032 113.988 307.043 114.061C307.066 114.207 307.144 114.338 307.262 114.426C307.379 114.515 307.527 114.554 307.673 114.536L309.847 114.231C309.919 114.221 309.989 114.197 310.052 114.16C310.115 114.122 310.171 114.073 310.215 114.015C310.259 113.956 310.291 113.89 310.31 113.819C310.328 113.748 310.332 113.674 310.322 113.602C310.312 113.529 310.288 113.459 310.251 113.396C310.214 113.333 310.165 113.278 310.106 113.234C310.009 113.162 309.892 113.124 309.771 113.125V113.125Z" fill="#333333"/>
    <path d="M304.277 108.682C304.164 108.682 304.055 108.643 303.967 108.573C303.879 108.503 303.817 108.405 303.791 108.296C303.572 107.366 303.234 106.043 303.004 105.375C302.397 103.756 301.36 102.333 300.004 101.26C297.246 99.1165 294.95 96.4357 293.258 93.3798C291.74 90.2348 291.975 84.0668 293.715 81.3798C294.779 79.7224 296.202 78.326 297.88 77.2947C299.557 76.2634 301.446 75.6235 303.405 75.4228C305.61 75.1601 307.846 75.4827 309.887 76.3581C311.928 77.2335 313.703 78.6309 315.033 80.4098C316.84 83.0098 317.991 89.0818 317.233 92.0168C316.531 94.4746 315.487 96.8218 314.133 98.9898L313.976 99.2268C313.142 100.376 312.434 101.611 311.863 102.911C311.646 104.333 311.576 105.774 311.656 107.211C311.66 107.343 311.61 107.472 311.519 107.568C311.428 107.664 311.302 107.72 311.17 107.724C311.103 107.73 311.036 107.722 310.973 107.701C310.909 107.679 310.851 107.644 310.802 107.598C310.754 107.552 310.715 107.496 310.69 107.434C310.665 107.372 310.653 107.305 310.656 107.238C310.579 105.7 310.661 104.158 310.902 102.638C311.495 101.235 312.247 99.9052 313.144 98.6748L313.302 98.4368C314.59 96.3598 315.587 94.1159 316.264 91.7678C316.955 89.0998 315.864 83.3548 314.214 80.9838C312.982 79.3668 311.353 78.0962 309.485 77.2956C307.616 76.4949 305.572 76.1915 303.552 76.4148C301.731 76.5866 299.974 77.1724 298.414 78.1274C296.854 79.0823 295.533 80.3812 294.552 81.9248C292.991 84.3368 292.784 90.1068 294.152 92.9488C295.776 95.8495 297.961 98.3988 300.578 100.449C302.105 101.64 303.27 103.233 303.943 105.049C304.257 105.96 304.677 107.726 304.758 108.072C304.788 108.201 304.766 108.336 304.696 108.449C304.626 108.561 304.515 108.641 304.386 108.672C304.35 108.679 304.314 108.682 304.277 108.682V108.682Z" fill="#333333"/>
    <path d="M306.802 108.133C306.694 108.132 306.59 108.098 306.504 108.033C306.418 107.969 306.355 107.879 306.324 107.776L301.936 93.1497C301.917 93.0868 301.911 93.0208 301.917 92.9554C301.924 92.8901 301.943 92.8267 301.974 92.7688C302.005 92.711 302.048 92.6598 302.099 92.6183C302.149 92.5767 302.208 92.5456 302.271 92.5267C302.398 92.4888 302.535 92.5029 302.651 92.5659C302.768 92.629 302.855 92.7357 302.893 92.8627L307.281 107.489C307.3 107.552 307.306 107.618 307.3 107.683C307.293 107.748 307.274 107.812 307.242 107.87C307.211 107.927 307.169 107.979 307.118 108.02C307.067 108.062 307.009 108.093 306.946 108.112C306.899 108.126 306.851 108.133 306.802 108.133Z" fill="#333333"/>
    <path d="M308.62 107.893C308.499 107.893 308.382 107.848 308.291 107.768C308.2 107.688 308.141 107.578 308.125 107.458L306.111 92.0627C306.102 91.9976 306.107 91.9314 306.124 91.868C306.141 91.8046 306.171 91.7452 306.211 91.6932C306.251 91.6412 306.301 91.5976 306.358 91.5649C306.415 91.5322 306.478 91.5111 306.543 91.5027C306.674 91.4857 306.807 91.5214 306.912 91.602C307.017 91.6826 307.086 91.8015 307.103 91.9327L309.117 107.333C309.125 107.398 309.121 107.464 309.104 107.527C309.087 107.591 309.057 107.65 309.017 107.702C308.977 107.754 308.927 107.798 308.87 107.83C308.813 107.863 308.75 107.884 308.685 107.893C308.663 107.894 308.642 107.894 308.62 107.893V107.893Z" fill="#333333"/>
    <path d="M302.477 92.8808C302.19 92.8879 301.909 92.7978 301.68 92.6251C301.451 92.4525 301.287 92.2075 301.214 91.9298C301.12 91.1971 301.212 90.4524 301.482 89.7648C300.359 89.4778 299.541 91.3498 299.533 91.3698C299.482 91.4918 299.384 91.5885 299.261 91.6385C299.139 91.6886 299.001 91.688 298.879 91.6368C298.818 91.6114 298.763 91.5744 298.717 91.5277C298.671 91.481 298.634 91.4257 298.609 91.3649C298.584 91.304 298.572 91.2389 298.572 91.1731C298.572 91.1074 298.585 91.0424 298.611 90.9818C298.659 90.8698 299.784 88.2448 301.783 88.8108C301.828 88.8228 301.873 88.8368 301.916 88.8498C301.945 88.8028 301.975 88.7558 302.007 88.7088C302.224 88.3605 302.514 88.0627 302.856 87.8353C303.198 87.608 303.585 87.4565 303.99 87.3908C304.923 87.2539 305.874 87.4727 306.653 88.0038C307.262 87.2237 308.091 86.6438 309.032 86.3388C309.16 86.306 309.296 86.3255 309.41 86.393C309.524 86.4605 309.607 86.5705 309.64 86.6988C309.656 86.7624 309.66 86.8286 309.651 86.8937C309.642 86.9587 309.62 87.0213 309.586 87.0779C309.553 87.1345 309.508 87.1839 309.456 87.2233C309.403 87.2628 309.344 87.2915 309.28 87.3078C308.531 87.5582 307.874 88.0274 307.394 88.6548C307.82 89.1063 308.084 89.6862 308.145 90.3038C308.141 90.7856 307.968 91.2508 307.658 91.6194C307.348 91.9881 306.919 92.2371 306.445 92.3238C306.303 92.3384 306.159 92.3237 306.023 92.2806C305.887 92.2374 305.761 92.1668 305.653 92.0731C305.545 91.9793 305.458 91.8645 305.396 91.7356C305.335 91.6067 305.3 91.4665 305.295 91.3238C305.27 90.4237 305.541 89.5402 306.066 88.8088C305.498 88.4318 304.811 88.2776 304.136 88.3758C303.868 88.4218 303.613 88.5252 303.389 88.6788C303.164 88.8324 302.976 89.0326 302.836 89.2658L302.829 89.2748C303.197 89.5482 303.48 89.9202 303.646 90.3477C303.811 90.7753 303.852 91.2409 303.764 91.6908C303.748 91.9979 303.619 92.2883 303.402 92.5064C303.186 92.7245 302.896 92.855 302.589 92.8728C302.549 92.8798 302.512 92.8808 302.477 92.8808ZM302.388 90.2008C302.214 90.6786 302.146 91.1882 302.188 91.6948C302.212 91.7585 302.258 91.8119 302.317 91.8456C302.377 91.8794 302.446 91.8915 302.513 91.8798C302.548 91.8793 302.582 91.8719 302.614 91.858C302.645 91.8442 302.674 91.8242 302.698 91.7991C302.722 91.7741 302.74 91.7445 302.753 91.7122C302.765 91.6799 302.771 91.6454 302.77 91.6108C302.83 91.3625 302.826 91.1032 302.759 90.8568C302.692 90.6103 302.564 90.3847 302.387 90.2008H302.388ZM306.797 89.5058C306.459 89.9996 306.279 90.5844 306.281 91.1828C306.284 91.2373 306.3 91.2903 306.329 91.3368V91.3368C306.472 91.3091 306.604 91.2431 306.712 91.1458C306.839 91.0524 306.943 90.9323 307.018 90.7941C307.093 90.6559 307.137 90.5028 307.147 90.3458C307.109 90.039 306.987 89.7485 306.796 89.5058H306.797Z" fill="#333333"/>
    <path d="M342.536 107.676C342.493 107.676 342.45 107.671 342.408 107.66C342.295 107.63 342.197 107.562 342.129 107.467C342.061 107.373 342.029 107.257 342.037 107.141C342.048 106.984 343.147 91.316 342.837 83.474C342.763 81.639 342.395 78.628 341.929 74.814C340.429 62.576 337.929 42.093 342.178 31.837C348.178 17.353 362.886 13.276 374.009 15.618C377.65 16.4051 381.095 17.9176 384.139 20.0652C387.183 22.2129 389.763 24.9516 391.725 28.118C395.887 34.977 396.71 43.529 394.105 52.851C391.712 61.42 377.965 71.892 366.918 80.306C363.222 82.9887 359.666 85.8591 356.264 88.906C350.924 94.3574 346.447 100.591 342.987 107.393C342.946 107.478 342.882 107.549 342.802 107.6C342.722 107.65 342.63 107.676 342.536 107.676V107.676ZM367.966 15.999C358.398 15.999 347.877 20.681 343.097 32.22C338.95 42.233 341.433 62.552 342.918 74.693C343.386 78.528 343.756 81.558 343.832 83.434C344.074 89.49 343.483 100.147 343.188 104.859C346.52 98.7575 350.684 93.1485 355.56 88.193C358.99 85.1152 362.577 82.217 366.307 79.51C376.658 71.625 390.834 60.827 393.137 52.581C395.666 43.532 394.881 35.253 390.865 28.636C388.975 25.5852 386.49 22.9465 383.557 20.8773C380.625 18.8082 377.306 17.3511 373.798 16.593C371.88 16.1942 369.925 15.9951 367.966 15.999V15.999Z" fill="#333333"/>
    <path d="M364.777 58.6929C361.595 58.6894 358.545 57.424 356.296 55.1744C354.046 52.9247 352.78 49.8744 352.777 46.6929C352.78 43.5113 354.046 40.4611 356.296 38.2114C358.545 35.9617 361.595 34.6963 364.777 34.6929C367.959 34.6963 371.009 35.9617 373.258 38.2114C375.508 40.4611 376.774 43.5113 376.777 46.6929C376.774 49.8744 375.508 52.9247 373.258 55.1744C371.009 57.424 367.959 58.6894 364.777 58.6929V58.6929ZM364.777 35.6929C361.861 35.6963 359.065 36.8563 357.003 38.9185C354.94 40.9806 353.78 43.7765 353.777 46.6929C353.78 49.6092 354.94 52.4051 357.003 54.4672C359.065 56.5294 361.861 57.6894 364.777 57.6929C367.693 57.6894 370.489 56.5294 372.551 54.4672C374.614 52.4051 375.774 49.6092 375.777 46.6929C375.774 43.7765 374.614 40.9806 372.551 38.9185C370.489 36.8563 367.693 35.6963 364.777 35.6929V35.6929Z" fill="#333333"/>
    <path d="M356.745 47.5737C356.629 47.5734 356.516 47.5328 356.427 47.4587C356.338 47.3846 356.277 47.2817 356.255 47.1677C355.97 45.5898 356.136 43.9635 356.734 42.4757C357.048 41.8166 357.492 41.228 358.04 40.7451C358.587 40.2622 359.227 39.895 359.92 39.6657C359.983 39.6486 360.05 39.6441 360.115 39.6526C360.18 39.6611 360.243 39.6824 360.3 39.7151C360.357 39.7479 360.407 39.7916 360.447 39.8437C360.487 39.8958 360.516 39.9552 360.533 40.0187C360.567 40.1466 360.549 40.2829 360.483 40.3977C360.417 40.5124 360.308 40.5962 360.18 40.6307C359.624 40.822 359.112 41.1228 358.675 41.5153C358.237 41.9077 357.883 42.3839 357.632 42.9157C357.132 44.2091 356.993 45.6145 357.232 46.9807C357.244 47.0454 357.244 47.1118 357.23 47.1763C357.217 47.2408 357.191 47.3019 357.154 47.3563C357.116 47.4106 357.069 47.4571 357.014 47.493C356.959 47.529 356.897 47.5537 356.832 47.5657C356.803 47.5704 356.774 47.5731 356.745 47.5737V47.5737Z" fill="#333333"/>
    <path d="M358.855 52.43C358.775 52.4302 358.695 52.411 358.624 52.374C357.839 51.8325 357.252 51.0505 356.951 50.146C356.929 50.0841 356.92 50.0185 356.923 49.9529C356.927 49.8874 356.943 49.8231 356.971 49.7639C357 49.7046 357.039 49.6515 357.088 49.6076C357.137 49.5637 357.194 49.5299 357.256 49.508C357.318 49.4862 357.383 49.4767 357.449 49.4802C357.515 49.4837 357.579 49.5001 357.638 49.5284C357.697 49.5567 357.751 49.5964 357.794 49.6453C357.838 49.6941 357.872 49.7511 357.894 49.813C358.113 50.4791 358.529 51.063 359.087 51.487C359.145 51.5175 359.197 51.5591 359.239 51.6095C359.281 51.6599 359.313 51.7181 359.332 51.7808C359.352 51.8435 359.359 51.9094 359.353 51.9748C359.347 52.0403 359.328 52.1039 359.298 52.162C359.256 52.2429 359.192 52.3106 359.114 52.3578C359.036 52.4051 358.946 52.4301 358.855 52.43V52.43Z" fill="#333333"/>
    <path d="M352.445 74.8369C352.186 74.8369 351.929 74.7831 351.692 74.6789C351.468 74.58 351.266 74.4372 351.099 74.2589C350.931 74.0806 350.802 73.8704 350.717 73.6409C350.634 73.4182 350.596 73.181 350.606 72.9435C350.616 72.706 350.673 72.4728 350.775 72.2579L358.199 56.3579C358.227 56.2983 358.266 56.2447 358.314 56.2003C358.363 56.1559 358.42 56.1215 358.481 56.099C358.543 56.0765 358.609 56.0664 358.674 56.0693C358.74 56.0722 358.804 56.088 358.864 56.1159C358.984 56.1721 359.077 56.2735 359.122 56.398C359.167 56.5225 359.161 56.6598 359.105 56.7799L351.68 72.6799C351.635 72.775 351.61 72.8782 351.606 72.9833C351.601 73.0885 351.618 73.1934 351.655 73.2919C351.694 73.3958 351.753 73.4909 351.828 73.5716C351.904 73.6523 351.996 73.717 352.097 73.7619C352.303 73.8526 352.536 73.8606 352.748 73.7841C352.96 73.7075 353.134 73.5524 353.235 73.3509L360.673 57.4069C360.729 57.2868 360.83 57.1938 360.955 57.1485C361.079 57.1031 361.217 57.109 361.337 57.1649C361.397 57.1926 361.45 57.2318 361.494 57.2803C361.539 57.3287 361.573 57.3854 361.596 57.4472C361.618 57.509 361.628 57.5746 361.625 57.6402C361.623 57.7059 361.607 57.7703 361.579 57.8299L354.14 73.7749C353.987 74.0943 353.747 74.3637 353.447 74.5517C353.146 74.7397 352.799 74.8386 352.445 74.8369V74.8369Z" fill="#333333"/>
    <path d="M332.185 176.293C332.095 176.293 332.006 176.269 331.929 176.223C331.845 176.173 331.778 176.1 331.736 176.013C331.693 175.925 331.677 175.828 331.689 175.731C331.739 175.339 336.789 136.309 349.264 113.592C361.13 91.9921 378.234 80.5011 393.9 83.5921C399.344 84.6691 404.365 88.5171 408.038 94.4251C413.727 103.579 415.515 116.506 412.591 127.358C408.121 143.98 397.436 154.848 380.835 159.658C373.918 161.643 366.902 163.265 359.815 164.518C357.003 165.046 354.574 165.501 352.534 166.028C347.086 167.442 338.834 171.628 332.477 176.197C332.392 176.259 332.29 176.293 332.185 176.293ZM388.777 84.0931C374.966 84.0931 360.543 95.1311 350.141 114.071C338.941 134.45 333.766 168.132 332.841 174.719C339.141 170.345 346.999 166.432 352.287 165.06C354.36 164.524 356.804 164.065 359.635 163.534C366.69 162.288 373.674 160.673 380.56 158.696C396.802 153.991 407.26 143.36 411.631 127.096C414.485 116.496 412.743 103.881 407.192 94.9511C403.667 89.2801 398.88 85.5941 393.711 84.5721C392.086 84.2541 390.433 84.0963 388.777 84.1011V84.0931Z" fill="#333333"/>
    <path d="M357.767 142.755C357.715 142.755 357.664 142.747 357.615 142.731C357.541 142.708 357.474 142.667 357.419 142.613C357.364 142.559 357.322 142.493 357.296 142.42L353.584 131.805C353.559 131.736 353.55 131.661 353.558 131.588C353.566 131.514 353.59 131.443 353.629 131.38C353.668 131.317 353.719 131.263 353.781 131.223C353.843 131.182 353.913 131.156 353.986 131.145L359.17 130.419L379.311 115.771C379.364 115.732 379.424 115.704 379.488 115.689C379.552 115.673 379.619 115.671 379.684 115.681C379.749 115.691 379.811 115.714 379.867 115.748C379.924 115.783 379.972 115.828 380.011 115.881C380.05 115.934 380.078 115.995 380.093 116.059C380.109 116.123 380.112 116.189 380.101 116.254C380.091 116.319 380.068 116.382 380.034 116.438C379.999 116.494 379.954 116.543 379.901 116.581L359.659 131.302C359.593 131.351 359.515 131.382 359.434 131.393L354.734 132.051L358.026 141.464L360.777 139.517C360.846 139.469 360.925 139.438 361.009 139.428L387.05 136.413C387.182 136.398 387.314 136.436 387.418 136.518C387.522 136.6 387.589 136.721 387.604 136.852C387.619 136.984 387.582 137.116 387.499 137.22C387.417 137.324 387.297 137.391 387.165 137.406L361.251 140.406L358.062 142.663C357.976 142.724 357.873 142.757 357.767 142.755Z" fill="#333333"/>
    <path d="M367.713 143.339C367.048 143.395 366.379 143.293 365.761 143.039C365.38 142.773 365.061 142.139 365.34 139.318C365.355 139.187 365.42 139.067 365.522 138.983C365.624 138.899 365.755 138.859 365.887 138.87C365.952 138.877 366.016 138.896 366.074 138.927C366.132 138.957 366.183 138.999 366.225 139.05C366.267 139.101 366.298 139.159 366.317 139.222C366.337 139.285 366.343 139.351 366.337 139.416C366.1 141.823 366.36 142.238 366.371 142.255C367.017 142.576 371.433 142.186 371.948 141.715C372.077 140.695 372.077 139.662 371.948 138.641C371.943 138.576 371.952 138.51 371.972 138.448C371.993 138.385 372.026 138.328 372.069 138.278C372.112 138.229 372.165 138.188 372.224 138.159C372.282 138.129 372.346 138.112 372.412 138.107C372.543 138.102 372.672 138.146 372.771 138.233C372.871 138.319 372.933 138.44 372.946 138.57C373.154 141.521 372.889 142.044 372.802 142.215C372.648 142.525 372.277 142.738 371.562 142.922C370.297 143.198 369.007 143.337 367.713 143.339V143.339Z" fill="#333333"/>
    <path d="M387.838 139.443C387.772 139.443 387.707 139.43 387.646 139.404C387.582 139.378 387.524 139.338 387.476 139.288C387.429 139.238 387.392 139.178 387.368 139.113L386.631 137.079L378.131 113.557C378.089 113.442 378.091 113.316 378.137 113.202C378.182 113.088 378.268 112.995 378.377 112.94L382.516 110.861C382.578 110.83 382.647 110.812 382.716 110.808C382.786 110.805 382.856 110.816 382.921 110.841C382.986 110.866 383.045 110.905 383.094 110.954C383.144 111.003 383.182 111.062 383.207 111.127L393.079 136.527C393.125 136.645 393.124 136.777 393.077 136.894C393.03 137.012 392.94 137.107 392.825 137.161L388.053 139.395C387.986 139.427 387.912 139.444 387.838 139.443V139.443ZM387.571 136.738L388.122 138.257L391.973 136.457L382.473 112.003L379.221 113.636L387.571 136.738Z" fill="#333333"/>
    <path d="M390.299 113.093C390.228 113.093 390.157 113.078 390.093 113.048C390.028 113.019 389.97 112.976 389.923 112.922C389.88 112.873 389.847 112.815 389.826 112.753C389.805 112.691 389.796 112.625 389.801 112.559C389.805 112.494 389.823 112.43 389.852 112.371C389.881 112.312 389.921 112.259 389.971 112.216L398.648 104.653C398.748 104.566 398.878 104.522 399.01 104.531C399.143 104.54 399.266 104.602 399.353 104.701C399.396 104.751 399.429 104.808 399.45 104.871C399.471 104.933 399.479 104.999 399.475 105.064C399.47 105.13 399.453 105.194 399.424 105.253C399.394 105.312 399.354 105.364 399.304 105.407L390.628 112.97C390.537 113.05 390.42 113.093 390.299 113.093V113.093Z" fill="#333333"/>
    <path d="M397.145 117.946C397.027 117.946 396.912 117.903 396.822 117.826C396.732 117.75 396.672 117.643 396.653 117.526C396.642 117.461 396.645 117.395 396.66 117.331C396.675 117.267 396.702 117.207 396.741 117.154C396.779 117.1 396.827 117.055 396.883 117.021C396.939 116.986 397.001 116.963 397.066 116.952L404.866 115.682C404.997 115.661 405.131 115.693 405.238 115.77C405.345 115.848 405.418 115.964 405.439 116.095C405.45 116.16 405.447 116.226 405.432 116.29C405.417 116.354 405.39 116.414 405.351 116.468C405.313 116.521 405.265 116.566 405.209 116.601C405.153 116.635 405.091 116.659 405.026 116.669L397.226 117.94C397.199 117.944 397.172 117.946 397.145 117.946V117.946Z" fill="#333333"/>
    <path d="M403.277 127.693H398.277C398.144 127.693 398.017 127.641 397.923 127.547C397.83 127.453 397.777 127.326 397.777 127.193C397.777 127.061 397.83 126.934 397.923 126.84C398.017 126.746 398.144 126.693 398.277 126.693H403.277C403.41 126.693 403.537 126.746 403.63 126.84C403.724 126.934 403.777 127.061 403.777 127.193C403.777 127.326 403.724 127.453 403.63 127.547C403.537 127.641 403.41 127.693 403.277 127.693Z" fill="#333333"/>
    <path d="M52.506 136.306C52.4167 136.306 52.329 136.282 52.252 136.237C52.1946 136.203 52.1445 136.158 52.1047 136.105C52.0648 136.052 52.0361 135.991 52.0201 135.926L45.0151 107.48C44.9954 107.401 44.9954 107.318 45.0153 107.238C45.0352 107.159 45.0743 107.086 45.1291 107.025L59.1401 91.5251C59.2291 91.4269 59.3534 91.368 59.4858 91.3615C59.6182 91.3549 59.7477 91.4012 59.846 91.4901C59.9444 91.579 60.0034 91.7033 60.0102 91.8357C60.0169 91.968 59.9708 92.0977 59.882 92.1961L46.049 107.496L52.8691 135.187L77.995 128.376L83.277 108.476L65.998 108.076L62.9571 117.068C62.9361 117.13 62.903 117.188 62.8598 117.237C62.8166 117.287 62.764 117.327 62.7051 117.357C62.6463 117.386 62.5822 117.403 62.5167 117.407C62.4511 117.412 62.3853 117.403 62.3231 117.382C62.2608 117.361 62.2032 117.328 62.1537 117.285C62.1043 117.242 62.0638 117.189 62.0346 117.13C62.0054 117.071 61.9882 117.007 61.9838 116.942C61.9794 116.876 61.988 116.81 62.0091 116.748L65.169 107.408C65.1991 107.305 65.2635 107.215 65.3517 107.153C65.4399 107.091 65.5465 107.061 65.654 107.068L83.935 107.492C84.0106 107.494 84.0848 107.513 84.152 107.548C84.2192 107.582 84.2777 107.632 84.3231 107.692C84.3686 107.753 84.3998 107.823 84.4144 107.897C84.4289 107.971 84.4264 108.048 84.407 108.121L78.887 128.909C78.8645 128.994 78.8201 129.071 78.7584 129.133C78.6966 129.195 78.6196 129.24 78.5351 129.263L52.6351 136.284C52.5931 136.297 52.5498 136.304 52.506 136.306V136.306Z" fill="#333333"/>
    <path d="M79.277 380.693C76.4933 380.689 73.8246 379.582 71.8562 377.614C69.8878 375.645 68.7804 372.977 68.777 370.193C68.7804 367.409 69.8878 364.74 71.8562 362.772C73.8246 360.804 76.4933 359.696 79.277 359.693C82.0607 359.696 84.7294 360.804 86.6978 362.772C88.6661 364.74 89.7735 367.409 89.777 370.193C89.7735 372.977 88.6661 375.645 86.6978 377.614C84.7294 379.582 82.0607 380.689 79.277 380.693V380.693ZM79.277 360.693C76.7582 360.696 74.3434 361.697 72.5624 363.478C70.7814 365.259 69.7796 367.674 69.777 370.193C69.7796 372.712 70.7814 375.126 72.5624 376.907C74.3434 378.688 76.7582 379.69 79.277 379.693C81.7957 379.69 84.2106 378.688 85.9916 376.907C87.7726 375.126 88.7743 372.712 88.777 370.193C88.7743 367.674 87.7726 365.259 85.9916 363.478C84.2106 361.697 81.7957 360.696 79.277 360.693V360.693Z" fill="#333333"/>
    <path d="M75.538 529.793C75.4846 529.793 75.4316 529.784 75.381 529.767L52.295 522.129C52.2096 522.1 52.1335 522.05 52.0745 521.982C52.0156 521.914 51.976 521.831 51.96 521.743C51.944 521.654 51.9522 521.563 51.9837 521.479C52.0152 521.394 52.0689 521.32 52.1391 521.264L76.657 501.522C76.7322 501.461 76.8232 501.424 76.9192 501.414C77.0152 501.404 77.1121 501.422 77.1981 501.466C77.2842 501.51 77.3557 501.578 77.404 501.661C77.4523 501.745 77.4752 501.841 77.47 501.938L76.038 529.319C76.034 529.396 76.0122 529.471 75.9744 529.538C75.9366 529.605 75.8837 529.662 75.82 529.706C75.7369 529.762 75.6386 529.793 75.538 529.793ZM53.481 521.467L75.0731 528.612L76.413 503.003L53.481 521.467Z" fill="#56CCF2"/>
    <path d="M360.777 474.693C365.748 474.693 369.777 470.663 369.777 465.693C369.777 460.722 365.748 456.693 360.777 456.693C355.806 456.693 351.777 460.722 351.777 465.693C351.777 470.663 355.806 474.693 360.777 474.693Z" fill="#56CCF2"/>
    <path d="M546.923 556.876C546.854 556.876 546.786 556.863 546.723 556.836L529.409 549.488C529.341 549.459 529.281 549.416 529.232 549.361C529.182 549.306 529.146 549.241 529.125 549.171C529.104 549.1 529.099 549.026 529.11 548.953C529.12 548.881 529.147 548.811 529.188 548.75L549.633 518.178C549.695 518.086 549.785 518.017 549.891 517.982C549.996 517.947 550.109 517.948 550.214 517.985C550.318 518.021 550.408 518.092 550.468 518.184C550.528 518.277 550.556 518.388 550.547 518.498L547.417 556.417C547.41 556.496 547.385 556.572 547.343 556.639C547.302 556.706 547.245 556.762 547.177 556.803C547.1 556.85 547.013 556.875 546.923 556.876V556.876ZM530.36 548.803L546.481 555.645L549.396 520.339L530.36 548.803Z" fill="#333333"/>
    <path d="M474.335 168.192L457.777 161.505C457.711 161.479 457.651 161.438 457.601 161.386C457.552 161.334 457.515 161.273 457.491 161.205C457.468 161.137 457.46 161.065 457.467 160.994C457.474 160.922 457.497 160.853 457.533 160.791L482.051 118.875C482.11 118.775 482.202 118.698 482.312 118.658C482.421 118.618 482.541 118.618 482.651 118.657C482.761 118.697 482.853 118.774 482.912 118.875C482.971 118.976 482.993 119.094 482.974 119.209L475.014 167.809C475.002 167.883 474.974 167.954 474.931 168.015C474.888 168.077 474.831 168.128 474.766 168.165C474.691 168.207 474.607 168.23 474.521 168.229C474.457 168.229 474.394 168.216 474.335 168.192Z" fill="#56CCF2"/>
    <path d="M540.277 70.6929C545.524 70.6929 549.777 66.4396 549.777 61.1929C549.777 55.9462 545.524 51.6929 540.277 51.6929C535.03 51.6929 530.777 55.9462 530.777 61.1929C530.777 66.4396 535.03 70.6929 540.277 70.6929Z" fill="#333333"/>
    <path d="M372.79 314.088H344.317C344.234 314.087 344.152 314.066 344.08 314.027C344.007 313.987 343.945 313.93 343.9 313.861C343.855 313.791 343.827 313.712 343.821 313.629C343.814 313.547 343.827 313.464 343.861 313.388L359.214 279.097C359.252 279.005 359.317 278.927 359.401 278.873C359.485 278.819 359.584 278.793 359.684 278.797C359.782 278.8 359.878 278.832 359.959 278.889C360.04 278.946 360.102 279.026 360.137 279.119L373.257 313.41C373.286 313.486 373.296 313.567 373.286 313.648C373.277 313.728 373.248 313.805 373.202 313.872C373.156 313.939 373.094 313.994 373.022 314.031C372.951 314.069 372.871 314.089 372.79 314.089V314.088ZM345.09 313.088H372.065L359.635 280.601L345.09 313.088Z" fill="#333333"/>
    <path d="M336.501 314.088C336.418 314.088 336.336 314.067 336.263 314.028C336.19 313.988 336.127 313.931 336.082 313.862C336.036 313.792 336.009 313.713 336.002 313.63C335.995 313.547 336.009 313.464 336.042 313.388L369.042 237.301C369.068 237.24 369.106 237.186 369.153 237.14C369.2 237.095 369.256 237.059 369.318 237.035C369.379 237.011 369.444 236.999 369.51 237C369.576 237.001 369.64 237.015 369.701 237.042C369.761 237.068 369.816 237.106 369.861 237.153C369.907 237.2 369.943 237.256 369.967 237.318C369.991 237.379 370.002 237.444 370.001 237.51C370 237.576 369.986 237.64 369.96 237.701L336.96 313.788C336.921 313.877 336.857 313.953 336.775 314.006C336.693 314.06 336.598 314.088 336.501 314.088Z" fill="#333333"/>
</svg>
