<?xml version="1.0" standalone="no"?>
<svg version="1.0" xmlns="http://www.w3.org/2000/svg"
     width="64.000000pt" height="64.000000pt" viewBox="0 0 64.000000 64.000000"
     preserveAspectRatio="xMidYMid meet">

    <g transform="translate(0.000000,64.000000) scale(0.100000,-0.100000)"
       fill="#000000" stroke="none">
        <path d="M180 590 l0 -49 -57 -3 -58 -3 0 -40 c-1 -22 -11 -59 -23 -82 -27
-52 -28 -79 -2 -95 18 -12 20 -24 20 -125 0 -106 -1 -113 -20 -113 -11 0 -20
-4 -20 -10 0 -6 107 -10 300 -10 193 0 300 4 300 10 0 6 -9 10 -20 10 -19 0
-20 7 -20 113 0 101 2 113 20 125 26 16 25 43 -2 95 -12 23 -22 60 -23 82 l0
40 -167 3 -168 2 0 25 c0 14 -4 25 -10 25 -5 0 -10 -11 -10 -25 0 -14 -4 -25
-10 -25 -5 0 -10 23 -10 50 0 28 -4 50 -10 50 -5 0 -10 -22 -10 -50z m380 -80
c0 -6 -87 -10 -240 -10 -153 0 -240 4 -240 10 0 6 87 10 240 10 153 0 240 -4
240 -10z m-394 -47 c-14 -50 -17 -83 -8 -83 6 0 13 15 17 33 15 72 4 67 145
67 141 0 130 5 145 -67 4 -18 11 -33 17 -33 9 0 6 33 -8 83 -5 14 1 17 33 17
38 0 40 -2 68 -61 23 -46 27 -64 19 -77 -16 -25 -42 -26 -81 -5 -32 17 -35 17
-64 0 -38 -21 -63 -22 -94 -1 -21 14 -25 24 -25 65 0 27 -4 49 -10 49 -5 0
-10 -22 -10 -49 0 -41 -4 -51 -25 -65 -31 -21 -56 -20 -94 1 -29 17 -32 17
-64 0 -39 -21 -65 -20 -81 5 -8 13 -4 31 19 77 28 59 30 61 68 61 32 0 38 -3
33 -17z m24 -148 c16 -20 84 -20 100 0 7 8 20 15 30 15 10 0 23 -7 30 -15 7
-8 29 -15 50 -15 21 0 43 7 50 15 16 19 25 19 71 -2 l38 -18 1 -67 c0 -61 -2
-68 -20 -68 -11 0 -20 -4 -20 -10 0 -5 9 -10 20 -10 16 0 20 -7 20 -30 0 -27
-3 -30 -30 -30 l-29 0 -3 98 -3 97 -175 0 -175 0 -3 -97 -3 -98 -29 0 c-27 0
-30 3 -30 30 0 23 4 30 20 30 11 0 20 5 20 10 0 6 -9 10 -20 10 -18 0 -20 7
-20 68 0 65 1 67 33 83 42 21 62 22 77 4z m290 -105 l0 -49 -160 0 -160 0 0
49 0 49 160 0 160 0 0 -49z m0 -100 l0 -30 -160 0 -160 0 0 30 0 30 160 0 160
0 0 -30z"/>
        <path d="M300 210 c0 -5 9 -10 20 -10 11 0 20 5 20 10 0 6 -9 10 -20 10 -11 0
-20 -4 -20 -10z"/>
    </g>
</svg>
